<?xml version="1.0" encoding="UTF-8"?>
<svg version="1.1" xmlns="http://www.w3.org/2000/svg" xmlns:xlink="http://www.w3.org/1999/xlink" x="0px" y="0px" width="60px" height="60px" viewBox="0 0 60 60">
<style type="text/css">
	.st0{fill:#515151;}
</style>
<path d="M0 0 C1.32 0 2.64 0 4 0 C4 0.66 4 1.32 4 2 C4.56589844 2.20496094 5.13179687 2.40992188 5.71484375 2.62109375 C6.44832031 2.89050781 7.18179688 3.15992188 7.9375 3.4375 C8.66839844 3.70433594 9.39929687 3.97117187 10.15234375 4.24609375 C12 5 12 5 13 6 C13.125 9 13.125 9 13 12 C12 13 12 13 9.4375 13.0625 C8.633125 13.041875 7.82875 13.02125 7 13 C6.67 15.31 6.34 17.62 6 20 C6.58007812 20.04898438 7.16015625 20.09796875 7.7578125 20.1484375 C12.43923092 20.59649405 16.57485459 21.298021 21 23 C20.505 25.475 20.505 25.475 20 28 C6.09625413 31.55417298 -7.51134481 32.36516645 -21.8125 31.75 C-22.55918945 31.72389648 -23.30587891 31.69779297 -24.07519531 31.67089844 C-28.46330161 31.41561236 -31.52945979 30.75914595 -35 28 C-35.8125 25.3125 -35.8125 25.3125 -36 23 C-35.01 22.67 -34.02 22.34 -33 22 C-33.0825 21.13375 -33.165 20.2675 -33.25 19.375 C-32.9353436 15.12713862 -31.68693655 13.2678958 -29 10 C-25.23449057 6.77242049 -21.9114656 6.61563513 -17.140625 6.7578125 C-14.53181644 7.05296967 -12.41213245 7.99494481 -10 9 C-7.32024404 9.01453953 -7.32024404 9.01453953 -5 8 C-3.79996657 6.18398635 -3.79996657 6.18398635 -3 4 C-1.625 1.75 -1.625 1.75 0 0 Z " fill="#8F6649" transform="translate(37,17)"/>
<path d="M0 0 C5.27315333 0.4452885 10.01770224 1.08373163 15 3 C14.67 4.65 14.34 6.3 14 8 C0.09625413 11.55417298 -13.51134481 12.36516645 -27.8125 11.75 C-28.55918945 11.72389648 -29.30587891 11.69779297 -30.07519531 11.67089844 C-34.46330161 11.41561236 -37.52945979 10.75914595 -41 8 C-41.8125 5.3125 -41.8125 5.3125 -42 3 C-40.68 2.67 -39.36 2.34 -38 2 C-37.67 2.66 -37.34 3.32 -37 4 C-27.54855821 6.10767777 -16.95454784 5.11287245 -7.3125 5.0625 C-5.62825654 5.05747338 -3.94401163 5.05291253 -2.25976562 5.04882812 C1.82685953 5.03791827 5.91341328 5.02071821 10 5 C8.3603125 4.5359375 8.3603125 4.5359375 6.6875 4.0625 C4.44592006 3.41662103 2.2130649 2.7376883 0 2 C0 1.34 0 0.68 0 0 Z " fill="#C6B4B4" transform="translate(43,37)"/>
<path d="M0 0 C6.15234375 0.5859375 6.15234375 0.5859375 8 1 C8.33 1.66 8.66 2.32 9 3 C6.03 3 3.06 3 0 3 C0 2.01 0 1.02 0 0 Z " fill="#433732" transform="translate(45,40)"/>
</svg>
