<?xml version="1.0" standalone="no"?>
<!DOCTYPE svg PUBLIC "-//W3C//DTD SVG 20010904//EN"
 "http://www.w3.org/TR/2001/REC-SVG-20010904/DTD/svg10.dtd">
<svg version="1.0" xmlns="http://www.w3.org/2000/svg"
 width="500.000000pt" height="500.000000pt" viewBox="0 0 500.000000 500.000000"
 preserveAspectRatio="xMidYMid meet">
<metadata>
Created by potrace 1.14, written by Peter Selinger 2001-2017
</metadata>
<g transform="translate(0.000000,500.000000) scale(0.100000,-0.100000)"
fill="#000000" stroke="none">
<path d="M3200 3543 c-29 -7 -71 -27 -93 -43 -23 -17 -46 -30 -52 -30 -6 0
-22 -12 -36 -26 -21 -22 -24 -34 -22 -91 2 -58 0 -64 -15 -58 -36 15 -46 10
-52 -25 -4 -19 -12 -45 -20 -56 -12 -19 -10 -25 13 -56 15 -19 27 -40 27 -47
0 -31 -229 -254 -346 -337 -104 -74 -190 -84 -312 -38 -37 14 -77 28 -89 31
-13 3 -23 9 -23 14 0 5 -6 9 -14 9 -8 0 -50 15 -93 33 -141 61 -332 118 -443
133 -50 7 -326 7 -379 -1 -107 -14 -267 -79 -392 -160 -227 -147 -399 -379
-464 -630 -21 -78 -27 -277 -11 -379 5 -35 5 -57 0 -53 -11 6 -116 -40 -212
-92 -61 -33 -62 -34 -62 -76 0 -156 121 -320 303 -411 61 -31 276 -94 367
-107 268 -40 321 -42 1100 -42 633 0 916 5 1070 20 19 1 76 6 125 10 130 11
263 22 340 30 33 3 125 14 165 20 14 2 54 7 90 11 36 4 67 8 70 9 3 1 34 5 70
9 91 11 339 54 440 76 161 36 426 121 508 164 58 30 82 109 51 169 -18 35 -61
77 -94 91 -231 102 -644 208 -1053 272 l-113 18 6 70 c3 39 8 87 10 106 2 19
7 63 10 97 3 34 7 70 9 80 2 10 7 38 10 63 7 56 12 82 27 142 10 42 13 47 47
53 20 4 70 8 112 10 163 9 207 22 228 70 8 17 28 37 45 45 51 25 69 59 70 131
0 55 -9 179 -17 232 -5 39 -91 118 -172 160 -111 57 -285 89 -496 91 l-167 1
4 25 c5 24 5 23 -6 -2 -6 -16 -17 -28 -25 -28 -8 0 -15 0 -16 -1 -15 -5 -88
-15 -88 -12 0 18 49 83 63 84 83 6 125 52 141 153 4 21 8 42 11 46 3 5 2 16
-1 25 -8 19 -74 19 -154 -2z m-55 -209 c24 -6 27 -26 7 -46 -7 -7 -12 -18 -12
-25 0 -7 -9 -22 -20 -33 -20 -20 -20 -20 -42 0 -13 10 -32 25 -42 33 -12 9
-17 20 -13 30 8 22 68 58 85 52 8 -3 24 -8 37 -11z"/>
<path d="M3270 3319 c0 -5 5 -7 10 -4 6 3 10 8 10 11 0 2 -4 4 -10 4 -5 0 -10
-5 -10 -11z"/>
</g>
</svg>
